<?xml version="1.0" encoding="iso-8859-1"?>
<!-- Generator: Adobe Illustrator 19.0.0, SVG Export Plug-In . SVG Version: 6.00 Build 0)  -->
<svg version="1.1" id="Capa_1" xmlns="http://www.w3.org/2000/svg" x="0px" y="0px"
     viewBox="0 0 512.006 512.006" style="enable-background:new 0 0 512.006 512.006;" xml:space="preserve">
<g>
	<g>
		<g>
			<path fill="#495057" d="M503.471,494.937V477.87c-0.011-9.421-7.645-17.056-17.067-17.067V247.47h17.067c3.474,0,6.601-2.105,7.908-5.324
				s0.533-6.908-1.958-9.33l-142.573-138.5c0.009-0.156,0.09-0.288,0.09-0.446V55.917c7.89,2.455,16.096,3.746,24.358,3.833
				c11.207,0.21,22.218-2.958,31.6-9.092c2.353-1.626,3.716-4.34,3.616-7.198c0.066-0.26,0.12-0.523,0.159-0.789V8.537
				c-0.001-3.152-1.738-6.048-4.52-7.531c-2.781-1.483-6.154-1.313-8.772,0.443c-21.042,14.15-50.859-0.396-51.142-0.533
				c-2.645-1.332-5.791-1.197-8.312,0.356s-4.056,4.303-4.055,7.264v76.8H179.204v-29.42c7.89,2.455,16.096,3.746,24.358,3.833
				c11.207,0.21,22.218-2.958,31.6-9.092c2.353-1.626,3.716-4.34,3.616-7.198c0.066-0.26,0.12-0.523,0.159-0.789V8.537
				c-0.001-3.152-1.738-6.048-4.52-7.531c-2.781-1.483-6.154-1.313-8.772,0.443c-21.05,14.15-50.85-0.396-51.142-0.533
				c-2.645-1.332-5.791-1.197-8.312,0.356s-4.056,4.303-4.055,7.264v78.107c-0.195,0.116-0.375,0.246-0.558,0.377
				c-0.395,0.211-0.771,0.455-1.125,0.729l-0.362,0.352c-2.268-0.865-4.605-1.533-6.987-1.998
				c-3.902-29.733-29.242-51.966-59.23-51.968c-29.988-0.002-55.331,22.227-59.237,51.959
				c-21.609,4.143-36.524,24.037-34.444,45.941c2.081,21.904,20.475,38.634,42.477,38.634h32.423l-63.973,62.146
				c-2.491,2.422-3.265,6.111-1.958,9.33s4.434,5.324,7.908,5.324h17.067v213.333c-9.421,0.011-17.056,7.645-17.067,17.067v17.067
				H8.537c-4.713,0-8.533,3.82-8.533,8.533s3.82,8.533,8.533,8.533h494.933c4.713,0,8.533-3.82,8.533-8.533
				S508.183,494.937,503.471,494.937z M366.937,20.904c13.801,4.574,28.647,4.959,42.667,1.108v16.646
				c-13.771,5.353-29.093,5.083-42.667-0.752V20.904z M179.204,20.904c13.801,4.574,28.647,4.959,42.667,1.108v16.646
				c-13.771,5.354-29.093,5.084-42.667-0.751V20.904z M350.671,102.404l131.767,128h-4.567H319.204l-131.765-128H350.671z
				 M469.337,247.47v25.6H298.671v-25.6H469.337z M42.671,153.604c-14.138,0-25.6-11.462-25.6-25.6s11.462-25.6,25.6-25.6
				c2.263,0.001,4.434-0.898,6.035-2.499c1.6-1.6,2.499-3.771,2.499-6.035c0-23.564,19.102-42.667,42.667-42.667
				c23.564,0,42.667,19.102,42.667,42.667c-0.001,2.263,0.898,4.434,2.499,6.035c1.6,1.6,3.771,2.499,6.035,2.499
				c0.091,0,0.173,0.033,0.264,0.034l-52.672,51.166H42.671z M166.404,105.766l128.3,124.638h-256.6L166.404,105.766z
				 M256.004,429.045V321.896c5.262-3.025,8.513-8.623,8.533-14.692v-17.067h17.067v170.667h-17.067v-17.067
				C264.517,437.668,261.266,432.069,256.004,429.045z M51.204,273.07v-25.6h153.6h76.8v25.6H51.204z M247.471,443.737v17.067
				h-34.133v-17.067H247.471z M221.871,426.67v-102.4h17.067v102.4H221.871z M213.337,307.204v-17.067h34.133l0.009,17.067H213.337z
				 M128.004,429.045V321.896c5.262-3.025,8.513-8.623,8.533-14.692v-17.067h59.733v17.067c0.02,6.069,3.272,11.668,8.533,14.692
				v107.149c-5.262,3.025-8.513,8.623-8.533,14.692v17.067h-59.733v-17.067C136.517,437.668,133.265,432.069,128.004,429.045z
				 M119.471,443.737v17.067H85.337v-17.067H119.471z M93.871,426.67v-102.4h17.067v102.4H93.871z M85.337,307.204v-17.067h34.133
				l0.009,17.067H85.337z M76.804,321.896v107.149c-5.262,3.025-8.513,8.623-8.533,14.692v17.067H51.204V290.137h17.067v17.067
				C68.291,313.273,71.542,318.871,76.804,321.896z M298.671,494.937h-85.333h-179.2V477.87h264.533V494.937z M298.671,290.137
				h170.667v170.667H298.671V290.137z M486.404,494.937H315.737V477.87h170.667V494.937z"/>
      <path fill="#ce0058" opacity="0.6" d="M162.137,145.07c-18.851,0-34.133,15.282-34.133,34.133c0.02,18.843,15.29,34.113,34.133,34.133
				c18.851,0,34.133-15.282,34.133-34.133S180.989,145.07,162.137,145.07z M162.137,196.27c-9.426,0-17.067-7.641-17.067-17.067
				c0.011-9.421,7.646-17.056,17.067-17.067c9.426,0,17.067,7.641,17.067,17.067S171.563,196.27,162.137,196.27z"/>
      <path fill="#495057" d="M341.337,324.27c-14.132,0.015-25.585,11.468-25.6,25.6v51.2c-0.001,2.263,0.898,4.434,2.499,6.035
				c1.6,1.6,3.771,2.499,6.035,2.499h34.133c2.263,0.001,4.434-0.898,6.035-2.499c1.6-1.6,2.499-3.771,2.499-6.035v-51.2
				C366.922,335.738,355.469,324.286,341.337,324.27z M349.871,392.537h-17.067V349.87c0-4.713,3.821-8.533,8.533-8.533
				s8.533,3.82,8.533,8.533V392.537z"/>
      <path fill="#495057" d="M426.671,324.27c-14.132,0.015-25.585,11.468-25.6,25.6v51.2c-0.001,2.263,0.898,4.434,2.499,6.035
				c1.6,1.6,3.771,2.499,6.035,2.499h34.133c2.263,0.001,4.434-0.898,6.035-2.499c1.6-1.6,2.499-3.771,2.499-6.035v-51.2
				C452.255,335.738,440.803,324.286,426.671,324.27z M435.204,392.537h-17.067V349.87c0-4.713,3.82-8.533,8.533-8.533
				s8.533,3.82,8.533,8.533V392.537z"/>
		</g>
	</g>
</g>
</svg>
